<svg width="320" height="320" viewBox="0 0 320 320" fill="none" xmlns="http://www.w3.org/2000/svg">
<path fill-rule="evenodd" clip-rule="evenodd" d="M19.5781 78.3601V217.507C19.5781 236.77 30.6595 254.315 48.0531 262.591L137.038 304.928C151.917 312.007 169.195 312.003 184.07 304.917L272.911 262.597C290.294 254.317 301.366 236.778 301.366 217.523V78.3601C301.366 48.2448 276.954 23.832 246.841 23.832H74.1019C43.989 23.832 19.5781 48.2448 19.5781 78.3601Z" fill="#FFE4DB"/>
<path fill-rule="evenodd" clip-rule="evenodd" d="M19.2588 187.532H301.057V166.937H19.2588V187.532Z" fill="#161616"/>
<path fill-rule="evenodd" clip-rule="evenodd" d="M211.927 121.102H142.496C140.785 121.102 139.321 122.329 139.022 124.014L131.438 166.769H208.034L215.4 125.246C215.784 123.085 214.121 121.102 211.927 121.102Z" fill="#CBCBCB"/>
<path fill-rule="evenodd" clip-rule="evenodd" d="M135.119 164.587L141.697 125.114C141.799 124.498 142.332 124.048 142.956 124.048H211.667C212.461 124.048 213.062 124.764 212.924 125.545L206.432 162.335L135.119 164.587Z" fill="#161616"/>
<path fill-rule="evenodd" clip-rule="evenodd" d="M208.418 163.291H133.997C130.549 163.291 127.754 160.495 127.754 157.047V156.662H214.661V157.047C214.661 160.495 211.866 163.291 208.418 163.291Z" fill="#D8D8D8"/>
<path fill-rule="evenodd" clip-rule="evenodd" d="M188.532 166.769H114.112C110.663 166.769 107.868 163.974 107.868 160.525V160.14H194.776V160.525C194.776 163.974 191.98 166.769 188.532 166.769Z" fill="#CBCBCB"/>
<path fill-rule="evenodd" clip-rule="evenodd" d="M106.188 127.956C106.188 127.956 106.721 138.598 102.996 142.322L97.6595 178.02L94.4834 163.29L97.3384 120.57L102.996 124.231L106.188 127.956Z" fill="#EAEAEA"/>
<path fill-rule="evenodd" clip-rule="evenodd" d="M106.667 80.0569L97.2297 78.8129C92.5629 78.1974 89.2785 73.9154 89.8933 69.2483L91.3977 57.8359C92.0125 53.1687 96.2942 49.8835 100.961 50.4989L110.398 51.7424C115.064 52.3573 118.349 56.6399 117.734 61.307L116.23 72.72C115.615 77.3871 111.334 80.6718 106.667 80.0569Z" fill="#FCDEB4"/>
<path fill-rule="evenodd" clip-rule="evenodd" d="M183.785 148.769C183.785 148.769 193.083 149.321 196.403 150.65C199.723 151.978 202.613 157.304 202.613 157.304H183.785V148.769Z" fill="#FCDEB4"/>
<path fill-rule="evenodd" clip-rule="evenodd" d="M67.7188 230.669L94.4226 296.892H109.3L98.6583 226.474L67.7188 230.669Z" fill="#E2BC8F"/>
<path fill-rule="evenodd" clip-rule="evenodd" d="M48.6992 94.5965L30.3174 183.203L105.576 183.376L106.639 111.013L108.064 80.2217H68.0392C59.1277 80.2217 51.269 86.0626 48.6992 94.5965Z" fill="#A8E0E5"/>
<path fill-rule="evenodd" clip-rule="evenodd" d="M125.862 90.3727L154.028 137.986C155.317 140.165 157.573 141.592 160.093 141.823L181.661 143.804C186.844 144.281 190.81 148.629 190.81 153.834C190.81 159.397 186.302 163.906 180.74 163.906H136.108C132.692 163.906 129.513 162.154 127.689 159.265L89.5043 98.7957C84.4128 90.7329 90.2063 80.2212 99.7416 80.2212H108.063C115.372 80.2212 122.139 84.0806 125.862 90.3727Z" fill="#A8E0E5"/>
<path fill-rule="evenodd" clip-rule="evenodd" d="M89.5049 98.7959L106.107 140.809L106.639 125.911L89.5049 98.7959Z" fill="#80CCCE"/>
<path fill-rule="evenodd" clip-rule="evenodd" d="M153.99 198.806C164.686 202.452 167.74 216.121 159.613 223.974L98.6581 282.874H78.9727L114.17 223.111L153.99 198.806Z" fill="#FCDEB4"/>
<path fill-rule="evenodd" clip-rule="evenodd" d="M90.9674 61.0967L77.9131 80.2211L106.666 80.0568L103.813 63.6355L90.9674 61.0967Z" fill="#FCDEB4"/>
<path fill-rule="evenodd" clip-rule="evenodd" d="M87.6159 171.581C87.6159 171.581 139.626 191.357 153.991 198.806L136.966 236.051H72.5898L87.6159 171.581Z" fill="#161616"/>
<path fill-rule="evenodd" clip-rule="evenodd" d="M108.064 64.1341C108.064 64.1341 107.172 61.5293 105.576 62.5932C103.98 63.6576 105.043 68.9782 107.172 68.4462C107.172 68.4462 102.413 74.0347 92.2897 74.0347C82.1664 74.0347 80.828 56.7628 87.6155 50.6324C94.403 44.5026 109.145 44.0118 113.479 52.7703C113.479 52.7703 113.556 57.2726 111.96 58.869C110.364 60.4654 108.064 64.1341 108.064 64.1341Z" fill="#161616"/>
<path fill-rule="evenodd" clip-rule="evenodd" d="M111.743 50.2629C111.743 50.2629 119.252 49.91 117.734 61.3066L107.544 60.0684L111.743 50.2629Z" fill="#161616"/>
<path fill-rule="evenodd" clip-rule="evenodd" d="M93.8717 44.5029C93.8717 48.9111 90.2983 52.4842 85.8915 52.4842C81.4835 52.4842 77.9102 48.9111 77.9102 44.5029C77.9102 40.0951 81.4835 36.522 85.8915 36.522C90.2983 36.522 93.8717 40.0951 93.8717 44.5029Z" fill="#161616"/>
<path fill-rule="evenodd" clip-rule="evenodd" d="M79.5725 307.722C74.1726 305.806 71.3482 299.875 73.264 294.474L80.5571 273.914C82.4734 268.514 88.4042 265.689 93.8036 267.605C99.2041 269.521 102.028 275.452 100.113 280.853L92.819 301.413C90.9032 306.813 84.9729 309.638 79.5725 307.722Z" fill="#161616"/>
<path fill-rule="evenodd" clip-rule="evenodd" d="M90.4089 238.363H135.343C139.156 238.363 142.247 235.272 142.247 231.459V222.403C142.247 209.923 132.131 199.807 119.652 199.807H84.8262L90.4089 238.363Z" fill="#EE3403"/>
<path fill-rule="evenodd" clip-rule="evenodd" d="M96.9707 238.363H23.7656C12.8253 238.363 3.95605 229.493 3.95605 218.552V196.402C3.95605 176.987 19.6936 161.249 39.1065 161.249H64.9779C82.6472 161.249 96.9707 175.574 96.9707 193.244V238.363Z" fill="#FF4D10"/>
<path fill-rule="evenodd" clip-rule="evenodd" d="M96.9707 193.245C96.9707 193.245 98.5067 199.806 111.367 199.806H96.9707V193.245Z" fill="#EE3403"/>
<path fill-rule="evenodd" clip-rule="evenodd" d="M96.9702 230.669C96.9702 230.669 97.8323 238.363 107.468 238.363H95.2393L96.9702 230.669Z" fill="#FF4D10"/>
<path fill-rule="evenodd" clip-rule="evenodd" d="M25.1851 317.991C23.432 317.991 22.0285 316.536 22.093 314.784L24.9089 238.363H39.9952L28.2429 315.364C28.0126 316.875 26.7132 317.991 25.1851 317.991Z" fill="#B1B1B1"/>
<path fill-rule="evenodd" clip-rule="evenodd" d="M24.9096 238.363L24.6396 245.693H38.8771L39.9964 238.363H24.9096Z" fill="#606060"/>
<path fill-rule="evenodd" clip-rule="evenodd" d="M44.4619 317.991C42.7088 317.991 41.3059 316.536 41.3703 314.784L44.1862 238.363H59.272L47.5203 315.364C47.29 316.875 45.9906 317.991 44.4619 317.991Z" fill="#B1B1B1"/>
<path fill-rule="evenodd" clip-rule="evenodd" d="M44.1865 238.363L43.916 245.693H58.1535L59.2728 238.363H44.1865Z" fill="#606060"/>
<path fill-rule="evenodd" clip-rule="evenodd" d="M88.4477 317.991C90.2009 317.991 91.6038 316.536 91.5394 314.784L88.7235 238.363H73.6377L85.3894 315.364C85.6197 316.875 86.9191 317.991 88.4477 317.991Z" fill="#B1B1B1"/>
<path fill-rule="evenodd" clip-rule="evenodd" d="M88.723 238.363L88.9935 245.693H74.756L73.6367 238.363H88.723Z" fill="#606060"/>
<path fill-rule="evenodd" clip-rule="evenodd" d="M111.078 317.991C112.83 317.991 114.234 316.536 114.169 314.784L111.353 238.363H96.2676L108.019 315.364C108.25 316.875 109.549 317.991 111.078 317.991Z" fill="#B1B1B1"/>
<path fill-rule="evenodd" clip-rule="evenodd" d="M111.354 238.363L111.624 245.693H97.3863L96.2676 238.363H111.354Z" fill="#606060"/>
<rect x="157.869" y="2.6084" width="117.391" height="235.652" rx="17.3913" fill="#FF4D10"/>
<rect x="161.348" y="6.08691" width="110.435" height="228.696" rx="14.7826" fill="white"/>
<path opacity="0.2" fill-rule="evenodd" clip-rule="evenodd" d="M262 17H171V93H262V17ZM262 101H171V115H262V101ZM171 123H262V137H171V123ZM262 145H171V159H262V145ZM171 167H262V181H171V167ZM262 202H171V224H262V202Z" fill="#C4C4C4"/>
<path fill-rule="evenodd" clip-rule="evenodd" d="M299.929 141H225.069C220.06 141 216 136.399 216 130.723V78.2773C216 72.6012 220.06 68 225.069 68H299.929C304.939 68 309 72.6012 309 78.2773V130.723C309 136.399 304.939 141 299.929 141Z" fill="#E5D8AC"/>
<path d="M272.864 108.268C269.362 108.268 265.981 106.99 263.355 104.674C260.729 102.358 259.038 99.1632 258.6 95.6893C258.586 95.573 258.528 95.4665 258.437 95.3918C258.347 95.3171 258.231 95.2799 258.114 95.2878C257.469 95.3301 256.826 95.4096 256.189 95.5261C255.473 94.528 254.472 93.7699 253.317 93.3517C252.161 92.9335 250.907 92.8747 249.718 93.1831C249.437 93.26 249.181 93.4099 248.977 93.6175C248.773 93.8251 248.627 94.0831 248.555 94.3652C248.483 94.6473 248.486 94.9435 248.566 95.2237C248.645 95.504 248.797 95.7582 249.006 95.9606C249.482 96.4096 249.849 96.9615 250.079 97.574C250.115 97.669 250.118 97.7734 250.088 97.8704C250.058 97.9675 249.996 98.0516 249.912 98.1093C247.389 99.787 245.56 102.322 244.762 105.245C244.738 105.343 244.68 105.431 244.6 105.494C244.519 105.556 244.42 105.59 244.319 105.589H243.835C243.202 105.589 242.596 105.84 242.149 106.287C241.702 106.734 241.451 107.341 241.451 107.973V110.937C241.451 111.569 241.702 112.175 242.149 112.622C242.596 113.069 243.202 113.32 243.835 113.32H245.532C245.613 113.321 245.693 113.342 245.763 113.382C245.833 113.423 245.891 113.481 245.932 113.551C247.042 115.442 248.598 117.031 250.464 118.182L249.093 122.918C249.01 123.201 248.984 123.498 249.017 123.791C249.049 124.084 249.139 124.368 249.281 124.626C249.423 124.884 249.615 125.112 249.845 125.296C250.076 125.48 250.34 125.617 250.623 125.699C250.827 125.759 251.038 125.79 251.25 125.789C251.737 125.789 252.21 125.63 252.599 125.338C252.988 125.045 253.271 124.634 253.406 124.166L254.475 120.474C254.509 120.361 254.584 120.265 254.687 120.206C254.789 120.147 254.911 120.13 255.025 120.159C257.89 120.923 260.905 120.926 263.772 120.168C263.887 120.14 264.008 120.156 264.11 120.215C264.213 120.274 264.289 120.37 264.322 120.483L265.404 124.166C265.539 124.634 265.822 125.044 266.21 125.337C266.599 125.63 267.072 125.788 267.558 125.789C267.77 125.79 267.981 125.759 268.185 125.699C268.468 125.618 268.733 125.481 268.963 125.297C269.194 125.113 269.386 124.885 269.528 124.627C269.671 124.368 269.761 124.084 269.793 123.791C269.826 123.498 269.8 123.201 269.718 122.918L268.434 118.518C268.407 118.425 268.41 118.325 268.443 118.233C268.476 118.142 268.537 118.063 268.618 118.008C270.222 117.005 271.574 115.645 272.567 114.034C273.56 112.423 274.168 110.605 274.343 108.721C274.347 108.655 274.338 108.59 274.315 108.529C274.291 108.467 274.256 108.412 274.209 108.365C274.163 108.319 274.107 108.284 274.046 108.261C273.984 108.238 273.919 108.228 273.854 108.233C273.533 108.255 273.199 108.268 272.864 108.268ZM248.869 105.752C248.871 105.429 248.969 105.113 249.15 104.845C249.332 104.577 249.589 104.368 249.888 104.246C250.188 104.124 250.517 104.093 250.834 104.157C251.151 104.222 251.443 104.379 251.671 104.608C251.899 104.838 252.054 105.13 252.116 105.448C252.178 105.765 252.145 106.094 252.021 106.393C251.897 106.692 251.687 106.947 251.417 107.127C251.148 107.307 250.832 107.402 250.508 107.402C250.072 107.4 249.655 107.224 249.348 106.915C249.041 106.606 248.869 106.188 248.869 105.752V105.752Z" fill="#FF4D10"/>
<path d="M272.864 105.573C275.174 105.573 277.433 104.888 279.355 103.604C281.276 102.32 282.774 100.495 283.658 98.3601C284.542 96.2252 284.774 93.876 284.323 91.6095C283.872 89.3431 282.759 87.2612 281.125 85.6272C279.491 83.9932 277.409 82.8804 275.143 82.4296C272.876 81.9788 270.527 82.2101 268.392 83.0945C266.257 83.9788 264.433 85.4763 263.149 87.3977C261.865 89.3191 261.18 91.5781 261.18 93.8889C261.183 96.9866 262.415 99.9565 264.606 102.147C266.796 104.337 269.766 105.569 272.864 105.573V105.573ZM274.211 86.6894C274.211 86.811 274.259 86.9276 274.345 87.0135C274.431 87.0995 274.548 87.1478 274.669 87.1478H275.559C275.908 87.1606 276.238 87.3083 276.48 87.5598C276.723 87.8113 276.858 88.1469 276.858 88.4962C276.858 88.8454 276.723 89.1811 276.48 89.4325C276.238 89.684 275.908 89.8317 275.559 89.8446H271.905C271.655 89.8411 271.412 89.9255 271.219 90.0829C271.025 90.2403 270.893 90.4608 270.846 90.7057C270.799 90.9507 270.839 91.2045 270.96 91.4228C271.08 91.641 271.274 91.8099 271.507 91.8998L275.218 93.3848C275.967 93.6832 276.6 94.2156 277.022 94.9027C277.445 95.5898 277.634 96.3948 277.562 97.1982C277.49 98.0015 277.161 98.7602 276.623 99.3614C276.085 99.9625 275.368 100.374 274.578 100.535C274.474 100.556 274.381 100.613 274.315 100.694C274.248 100.776 274.211 100.878 274.211 100.984V101.534C274.198 101.883 274.05 102.213 273.799 102.456C273.548 102.698 273.212 102.834 272.863 102.834C272.513 102.834 272.178 102.698 271.926 102.456C271.675 102.213 271.527 101.883 271.514 101.534V101.094C271.514 100.972 271.466 100.856 271.38 100.77C271.294 100.684 271.177 100.636 271.056 100.636H270.167C269.818 100.623 269.487 100.475 269.245 100.224C269.003 99.9721 268.867 99.6364 268.867 99.2872C268.867 98.9379 269.003 98.6023 269.245 98.3508C269.487 98.0993 269.818 97.9516 270.167 97.9388H273.817C274.064 97.9389 274.303 97.8531 274.494 97.696C274.684 97.5389 274.814 97.3205 274.861 97.078C274.908 96.8356 274.87 96.5844 274.752 96.3674C274.634 96.1505 274.444 95.9813 274.215 95.8891L270.517 94.3986C269.768 94.1 269.135 93.5674 268.712 92.8802C268.29 92.193 268.101 91.3878 268.173 90.5844C268.245 89.7811 268.575 89.0224 269.113 88.4214C269.65 87.8204 270.368 87.409 271.159 87.2486C271.262 87.2278 271.355 87.1719 271.422 87.0904C271.489 87.0089 271.525 86.9067 271.525 86.8013V86.2513C271.519 86.07 271.548 85.8892 271.613 85.7198C271.678 85.5504 271.776 85.3957 271.902 85.2651C272.028 85.1345 272.179 85.0307 272.346 84.9597C272.513 84.8888 272.692 84.8522 272.874 84.8522C273.055 84.8522 273.235 84.8888 273.401 84.9597C273.568 85.0307 273.719 85.1345 273.845 85.2651C273.971 85.3957 274.069 85.5504 274.134 85.7198C274.199 85.8892 274.229 86.07 274.222 86.2513L274.211 86.6894Z" fill="#FF4D10"/>
<path fill-rule="evenodd" clip-rule="evenodd" d="M309.775 232.826C309.775 260.128 287.643 282.261 260.343 282.261C233.044 282.261 210.913 260.128 210.913 232.826C210.913 205.524 233.044 183.391 260.343 183.391C287.643 183.391 309.775 205.524 309.775 232.826Z" fill="#FF4D10"/>
<path fill-rule="evenodd" clip-rule="evenodd" d="M309.775 232.826C309.775 260.128 287.643 282.261 260.343 282.261C233.044 282.261 210.913 260.128 210.913 232.826C210.913 205.524 233.044 183.391 260.343 183.391C287.643 183.391 309.775 205.524 309.775 232.826Z" fill="#FF4D10"/>
<path d="M260.134 193V197.147" stroke="white" stroke-width="3.838" stroke-linecap="round"/>
<path d="M260.134 268.239V272.387" stroke="white" stroke-width="3.838" stroke-linecap="round"/>
<path d="M240.288 198.317L242.362 201.909" stroke="white" stroke-width="3.838" stroke-linecap="round"/>
<path d="M277.904 263.477L279.979 267.069" stroke="white" stroke-width="3.838" stroke-linecap="round"/>
<path d="M225.76 212.846L229.352 214.92" stroke="white" stroke-width="3.838" stroke-linecap="round"/>
<path d="M290.916 250.466L294.508 252.54" stroke="white" stroke-width="3.838" stroke-linecap="round"/>
<path d="M220.443 232.693H224.591" stroke="white" stroke-width="3.838" stroke-linecap="round"/>
<path d="M295.68 232.693H299.827" stroke="white" stroke-width="3.838" stroke-linecap="round"/>
<path d="M225.76 252.54L229.352 250.466" stroke="white" stroke-width="3.838" stroke-linecap="round"/>
<path d="M290.916 214.92L294.508 212.846" stroke="white" stroke-width="3.838" stroke-linecap="round"/>
<path d="M240.288 267.069L242.362 263.477" stroke="white" stroke-width="3.838" stroke-linecap="round"/>
<path d="M277.904 201.909L279.979 198.317" stroke="white" stroke-width="3.838" stroke-linecap="round"/>
<path d="M247.997 224.506L260.332 232.817L273.987 209.458" stroke="white" stroke-width="3.838" stroke-linecap="round"/>
</svg>
