<svg width="320" height="320" viewBox="0 0 320 320" fill="none" xmlns="http://www.w3.org/2000/svg">
<mask id="mask0" mask-type="alpha" maskUnits="userSpaceOnUse" x="19" y="27" width="283" height="288">
<path d="M74.1513 27.5322C44.0017 27.5322 19.5605 51.9751 19.5605 82.1261V221.44C19.5605 240.726 30.6554 258.292 48.0705 266.578L137.166 308.966C152.063 316.053 169.361 316.05 184.256 308.955L273.206 266.585C290.61 258.294 301.695 240.734 301.695 221.456V82.1261C301.695 51.9751 277.254 27.5322 247.104 27.5322H74.1513Z" fill="white"/>
</mask>
<g mask="url(#mask0)">
<path fill-rule="evenodd" clip-rule="evenodd" d="M79.2979 480.912H320.287V-18.7793H79.2979V480.912Z" fill="#FFE4DB"/>
<path fill-rule="evenodd" clip-rule="evenodd" d="M230.01 67.2799C229.796 66.5644 230.647 72.4268 233.25 77.7183C235.197 81.6777 229.923 86.1304 232.153 86.4366L234.384 86.7428L235.412 92.2277C236.187 96.3615 240.167 99.084 244.301 98.3091L256.408 96.0388L250.303 63.4746L230.01 67.2799Z" fill="#FFC398"/>
<path fill-rule="evenodd" clip-rule="evenodd" d="M252.489 102.18L271.383 98.6373L265.347 66.4473L246.454 69.99L252.489 102.18Z" fill="#FFC398"/>
<path fill-rule="evenodd" clip-rule="evenodd" d="M154.958 189.766H65.1341L47.4081 134.841C46.4631 131.913 48.646 128.915 51.7229 128.915H132.018C133.985 128.915 135.728 130.183 136.333 132.056L154.958 189.766Z" fill="#CBCBCB"/>
<path fill-rule="evenodd" clip-rule="evenodd" d="M152.74 191.985H62.9166L45.1901 137.061C44.2456 134.133 46.4285 131.134 49.5049 131.134H129.8C131.768 131.134 133.511 132.403 134.115 134.276L152.74 191.985Z" fill="#161616"/>
<path fill-rule="evenodd" clip-rule="evenodd" d="M249.723 103.071C249.723 103.071 255.341 93.2077 260.45 92.3423C263.682 91.7948 273.103 90.6988 279.585 89.9674C283.644 89.5092 287.65 91.1767 290.188 94.3781L293.219 98.2031C293.219 98.2031 264.61 106.238 262.379 106.259C260.147 106.281 249.723 103.071 249.723 103.071Z" fill="#606060"/>
<path fill-rule="evenodd" clip-rule="evenodd" d="M189.19 197.494H70.5025C67.5377 197.494 65.1348 195.091 65.1348 192.125V189.767H194.558V192.125C194.558 195.091 192.155 197.494 189.19 197.494Z" fill="#CBCBCB"/>
<path fill-rule="evenodd" clip-rule="evenodd" d="M247.319 100.468L280.947 96.4056C294.25 94.7982 306.829 102.833 310.966 115.579L336.755 254.424L242.922 248.953L220.414 177.694L247.319 100.468Z" fill="white"/>
<path fill-rule="evenodd" clip-rule="evenodd" d="M141.923 256.889L130.237 433.842H194.572L212.795 254.424L141.923 256.889Z" fill="#161616"/>
<path fill-rule="evenodd" clip-rule="evenodd" d="M267.63 125.895L255.645 247.416L242.923 248.953L226.479 197.07L267.63 125.895Z" fill="#606060"/>
<path fill-rule="evenodd" clip-rule="evenodd" d="M125.8 197.493V169.397L203.921 161.018L218.349 120.586C223.146 107.145 235.875 98.1724 250.146 98.1724H252.533C266.889 98.1724 277.04 112.219 272.533 125.851L255.786 176.517C251.648 189.037 239.948 197.493 226.762 197.493H125.8Z" fill="white"/>
<path fill-rule="evenodd" clip-rule="evenodd" d="M333.972 231.761L339.107 270.669C339.607 274.449 339.605 278.287 338.986 282.049C335.951 300.499 319.92 314.794 300.358 314.794L125.581 318.756L129.565 263.337C130.565 249.43 141.888 238.514 155.822 238.024L333.972 231.761Z" fill="#161616"/>
<path fill-rule="evenodd" clip-rule="evenodd" d="M158.46 373.227C155.827 373.227 153.278 371.818 151.943 369.336C150.008 365.741 151.354 361.257 154.95 359.322L155.391 359.084C166.862 352.908 176.931 344.721 185.318 334.75C193.706 324.78 200.046 313.456 204.166 301.095L225.099 238.296C226.39 234.423 230.576 232.329 234.451 233.62C238.325 234.911 240.418 239.099 239.127 242.973L218.195 305.772C213.482 319.911 206.227 332.864 196.634 344.269C187.04 355.675 175.522 365.04 162.399 372.105L161.957 372.343C160.842 372.942 159.642 373.227 158.46 373.227Z" fill="#E03507"/>
<path fill-rule="evenodd" clip-rule="evenodd" d="M269.846 384.413C265.763 384.413 262.453 382.302 262.453 379.699V317.716C262.453 315.113 265.763 313.003 269.846 313.003C273.93 313.003 277.239 315.113 277.239 317.716V379.699C277.239 382.302 273.93 384.413 269.846 384.413Z" fill="#606060"/>
<path fill-rule="evenodd" clip-rule="evenodd" d="M325.787 326.636H213.903C206.349 326.636 200.226 320.512 200.226 312.957C200.226 305.403 206.349 299.279 213.903 299.279H325.787C333.341 299.279 339.465 305.403 339.465 312.957C339.465 320.512 333.341 326.636 325.787 326.636Z" fill="#B1B1B1"/>
<path fill-rule="evenodd" clip-rule="evenodd" d="M258.888 244.474H181.967C177.884 244.474 174.573 241.164 174.573 237.081C174.573 232.997 177.884 229.687 181.967 229.687H258.888C269.388 229.687 279.874 227.15 289.213 222.351L312.8 210.23C316.432 208.363 320.889 209.795 322.755 213.427C324.621 217.059 323.19 221.516 319.558 223.382L295.972 235.504C284.551 241.372 271.728 244.474 258.888 244.474Z" fill="#FF4D10"/>
<path fill-rule="evenodd" clip-rule="evenodd" d="M125.801 169.397L103.52 170.894C96.5663 171.361 89.9782 174.18 84.839 178.888L77.6699 185.455V189.766H125.801V169.397Z" fill="#FFC398"/>
<path fill-rule="evenodd" clip-rule="evenodd" d="M-56.6055 480.889H89.5111V-21.7344H-56.6055V480.889Z" fill="#FF4D10"/>
<path fill-rule="evenodd" clip-rule="evenodd" d="M89.5098 471.044H98.8368V-12.4077H89.5098V471.044Z" fill="#E03507"/>
<path fill-rule="evenodd" clip-rule="evenodd" d="M230.799 70.1112C233.039 70.7336 236.355 71.3125 240.943 71.3125C240.943 71.3125 242.77 75.4888 246.163 76.7942L248.252 83.5804L251.122 82.7974L249.724 76.4774C249.724 76.4774 249.926 74.7967 252.091 74.4905C254.255 74.1838 255.828 81.231 253.084 83.5804L259.486 89.8919L269.37 87.8981L263.651 57.4786L262.085 58.2621L258.813 54.8416C257.318 53.2784 255.028 52.7713 253.013 53.5569L224.177 60.7763L225.963 65.6478C226.762 67.8282 228.561 69.4898 230.799 70.1112Z" fill="#161616"/>
</g>
<path fill-rule="evenodd" clip-rule="evenodd" d="M98.958 213.568H209.363V196.862H98.958V213.568Z" fill="#161616"/>
<mask id="mask1" mask-type="alpha" maskUnits="userSpaceOnUse" x="19" y="167" width="59" height="55">
<rect x="19.5215" y="167.826" width="58.2609" height="53.913" fill="#C4C4C4"/>
</mask>
<g mask="url(#mask1)">
<path d="M39.748 221.44C82.2399 221.44 76.3401 170.906 76.3401 170.906L39.748 211.479V203.043C27.9335 179.565 4.30469 141.391 4.30469 176.522C4.30469 211.652 27.9335 221.105 39.748 221.44Z" fill="#E03507"/>
</g>
<path fill-rule="evenodd" clip-rule="evenodd" d="M76.3414 175.459C76.3414 195.352 60.2158 211.479 40.3228 211.479C20.4308 211.479 4.30469 195.352 4.30469 175.459C4.30469 155.565 20.4308 139.438 40.3228 139.438C60.2158 139.438 76.3414 155.565 76.3414 175.459Z" fill="#FFE4DB"/>
<path fill-rule="evenodd" clip-rule="evenodd" d="M40.3177 185.536C35.1604 185.536 30.9795 181.355 30.9795 176.197V168.193C30.9795 163.035 35.1604 158.854 40.3177 158.854C45.475 158.854 49.6553 163.035 49.6553 168.193V176.197C49.6553 181.355 45.475 185.536 40.3177 185.536Z" stroke="#FF4D10" stroke-width="5.90288"/>
<rect x="24.9307" y="171.223" width="30.7877" height="21.3629" rx="6.95652" fill="#FF4D10"/>
<path fill-rule="evenodd" clip-rule="evenodd" d="M204.688 71.6885H129.475C124.442 71.6885 120.362 67.6084 120.362 62.5752V16.0698C120.362 11.0366 124.442 6.95654 129.475 6.95654H204.688C209.722 6.95654 213.802 11.0366 213.802 16.0698V62.5752C213.802 67.6084 209.722 71.6885 204.688 71.6885Z" fill="#E5D8AC"/>
<path fill-rule="evenodd" clip-rule="evenodd" d="M184.003 55.462H195.442V22.4619H184.003V55.462ZM138.463 55.4627H149.903V28.4024H138.463V55.4627ZM153.643 55.4613H165.082V41.8214H153.643V55.4613ZM180.261 55.4621H168.821V32.5818H180.261V55.4621ZM201.381 58.3233H132.523V55.4631H201.381V58.3233Z" fill="#FF4D10"/>
</svg>
